<svg width="993" height="993" viewBox="0 0 993 993" fill="none" xmlns="http://www.w3.org/2000/svg">
<path fill-rule="evenodd" clip-rule="evenodd" d="M444.5 488.712L428.5 830.212C428.5 875.212 473.5 894.712 498 894.712C522.5 894.712 563 869.212 563 830.212L547.5 488.712C547.61 476.49 550.669 470.159 561 459.712C591.285 435.09 600.012 415.413 607 374.212C603.798 335.952 597.5 316.712 560.5 285.212C553.452 279.212 547.5 283.712 547.5 289.212V368.212L496 397.212L444.5 368.212V289.212C444.5 283.712 439.005 279.712 434 283.712C400.585 310.416 388.689 329.524 385 374.212C390.8 415.917 402.349 434.127 434 459.712C441.173 470.823 443.22 477.19 444.5 488.712ZM467.5 826.712C467.636 843.695 481.017 857.574 498 857.712C515.12 857.851 528.863 843.833 529 826.712C529.138 809.453 515.259 795.072 498 795.212C480.878 795.351 467.363 809.59 467.5 826.712Z" fill="white"/>
<path d="M444.5 368.212C444.5 368.212 444.5 294.712 444.5 289.212C444.5 283.712 439.005 279.712 434 283.712C400.585 310.416 388.689 329.524 385 374.212C390.8 415.917 402.349 434.127 434 459.712C441.173 470.823 443.22 477.19 444.5 488.712L428.5 830.212C428.5 875.212 473.5 894.712 498 894.712C522.5 894.712 563 869.212 563 830.212L547.5 488.712C547.61 476.49 550.669 470.159 561 459.712C591.285 435.09 600.012 415.413 607 374.212C603.798 335.952 597.5 316.712 560.5 285.212C553.452 279.212 547.5 283.712 547.5 289.212V368.212L496 397.212L444.5 368.212ZM444.5 289.212V368.212M498 857.712C481.017 857.574 467.636 843.695 467.5 826.712C467.363 809.59 480.878 795.351 498 795.212C515.259 795.072 529.138 809.453 529 826.712C528.863 843.833 515.12 857.851 498 857.712Z" stroke="white"/>
<path d="M495.305 164.093C540.044 163.933 583.478 179.163 618.321 207.227C653.164 235.292 677.297 274.486 686.672 318.232C696.046 361.979 690.092 407.619 669.808 447.497C651.343 483.8 622.024 513.318 586.076 532.04C580.198 535.101 573.085 532.344 570.39 526.289L569.212 523.641C564.622 512.22 560.471 500.888 576.42 489.791C576.596 489.672 576.773 489.554 576.949 489.434C577.179 489.278 577.409 489.12 577.638 488.963C577.968 488.737 578.296 488.51 578.623 488.281C578.837 488.131 579.051 487.982 579.264 487.831C579.475 487.682 579.684 487.532 579.893 487.383C580.085 487.246 580.275 487.108 580.466 486.97C580.764 486.755 581.062 486.54 581.358 486.322C581.641 486.114 581.923 485.905 582.205 485.695C582.397 485.552 582.588 485.408 582.779 485.264C582.961 485.128 583.141 484.99 583.322 484.852C583.543 484.684 583.763 484.516 583.983 484.346C584.21 484.172 584.436 483.997 584.662 483.821C585.071 483.502 585.478 483.181 585.884 482.858C585.939 482.814 585.994 482.77 586.049 482.726C586.32 482.51 586.59 482.292 586.859 482.073C586.964 481.988 587.069 481.902 587.174 481.816C587.702 481.385 588.227 480.952 588.749 480.513C588.806 480.465 588.863 480.417 588.921 480.369C589.12 480.201 589.318 480.033 589.515 479.864C589.695 479.711 589.875 479.557 590.054 479.403C590.252 479.233 590.45 479.062 590.647 478.89C590.876 478.691 591.104 478.49 591.332 478.29C591.564 478.086 591.795 477.88 592.025 477.675C592.292 477.437 592.558 477.198 592.823 476.958C592.95 476.843 593.076 476.727 593.203 476.612C593.428 476.407 593.652 476.201 593.875 475.995C594.33 475.574 594.783 475.151 595.233 474.724C595.275 474.685 595.317 474.645 595.358 474.605C595.539 474.433 595.719 474.26 595.899 474.087C596.072 473.921 596.244 473.755 596.416 473.589C596.609 473.401 596.802 473.214 596.994 473.025C597.154 472.868 597.313 472.71 597.472 472.553C597.832 472.197 598.189 471.839 598.545 471.479C598.671 471.352 598.797 471.224 598.923 471.096C599.161 470.854 599.398 470.61 599.635 470.366C599.732 470.266 599.828 470.165 599.925 470.064C600.13 469.85 600.336 469.637 600.541 469.422C600.837 469.11 601.133 468.797 601.427 468.482C601.593 468.303 601.759 468.123 601.925 467.943C602.103 467.75 602.282 467.556 602.46 467.361C602.624 467.181 602.788 467.001 602.952 466.82C603.154 466.597 603.354 466.373 603.555 466.149C603.746 465.934 603.938 465.719 604.129 465.503C604.35 465.252 604.571 465.002 604.79 464.75C604.99 464.52 605.188 464.288 605.387 464.057C605.5 463.925 605.614 463.793 605.727 463.66C606.4 462.871 607.064 462.075 607.72 461.272C607.824 461.145 607.927 461.017 608.031 460.889C608.212 460.667 608.392 460.443 608.571 460.22C608.733 460.017 608.894 459.814 609.055 459.611C609.642 458.869 610.223 458.122 610.796 457.368C610.931 457.19 611.066 457.012 611.201 456.833C611.346 456.64 611.492 456.448 611.636 456.255C611.915 455.879 612.194 455.502 612.471 455.124C612.576 454.98 612.679 454.834 612.784 454.689C612.972 454.43 613.16 454.17 613.346 453.909C613.476 453.728 613.605 453.546 613.733 453.364C613.923 453.096 614.113 452.827 614.301 452.557C614.409 452.402 614.519 452.246 614.627 452.09C614.881 451.722 615.133 451.352 615.384 450.982C615.515 450.788 615.645 450.592 615.776 450.397C615.921 450.182 616.065 449.966 616.208 449.75C616.338 449.553 616.468 449.357 616.597 449.16C616.826 448.811 617.054 448.461 617.28 448.11C617.411 447.906 617.542 447.702 617.672 447.497C617.828 447.252 617.983 447.006 618.138 446.76C618.27 446.548 618.402 446.337 618.533 446.125C618.672 445.9 618.81 445.675 618.948 445.45C619.083 445.229 619.22 445.009 619.354 444.787C619.596 444.388 619.835 443.988 620.072 443.587C620.166 443.428 620.259 443.269 620.352 443.11C620.514 442.835 620.673 442.56 620.833 442.284C620.931 442.114 621.029 441.944 621.127 441.773C621.291 441.487 621.453 441.199 621.615 440.912C621.753 440.667 621.891 440.421 622.028 440.175C622.205 439.857 622.38 439.539 622.555 439.22C622.661 439.025 622.766 438.83 622.871 438.635C623.008 438.38 623.145 438.124 623.281 437.868C623.389 437.664 623.499 437.461 623.606 437.257C623.823 436.843 624.039 436.429 624.252 436.013C624.34 435.842 624.427 435.67 624.514 435.498C624.655 435.221 624.795 434.944 624.934 434.666C625.033 434.469 625.131 434.271 625.228 434.074C625.647 433.226 626.058 432.372 626.461 431.514C626.578 431.264 626.695 431.013 626.811 430.762C626.914 430.542 627.015 430.32 627.116 430.098C627.226 429.857 627.336 429.616 627.445 429.375C627.626 428.973 627.805 428.569 627.982 428.165C628.048 428.016 628.112 427.866 628.177 427.717C628.326 427.372 628.476 427.026 628.623 426.679C628.69 426.521 628.757 426.363 628.824 426.205C628.989 425.813 629.153 425.419 629.314 425.025C629.352 424.934 629.39 424.843 629.428 424.752C629.607 424.313 629.782 423.872 629.957 423.431C630.037 423.229 630.117 423.025 630.196 422.822C630.316 422.515 630.436 422.207 630.554 421.899C630.629 421.703 630.703 421.507 630.777 421.31C630.945 420.866 631.112 420.42 631.276 419.973C631.309 419.883 631.342 419.792 631.375 419.702C631.517 419.311 631.658 418.919 631.797 418.526C631.864 418.337 631.931 418.147 631.998 417.957C632.107 417.645 632.214 417.332 632.321 417.019C632.389 416.819 632.459 416.619 632.526 416.419C632.68 415.961 632.832 415.502 632.981 415.043C633.025 414.91 633.067 414.776 633.11 414.643C633.223 414.294 633.333 413.943 633.443 413.592C633.504 413.398 633.565 413.204 633.625 413.011C633.735 412.652 633.845 412.294 633.953 411.934C634.02 411.712 634.086 411.489 634.152 411.266C634.267 410.877 634.38 410.486 634.492 410.095C634.548 409.897 634.604 409.7 634.66 409.503C634.735 409.237 634.808 408.97 634.882 408.703C634.954 408.439 635.028 408.176 635.098 407.912C635.224 407.446 635.346 406.978 635.467 406.511C635.486 406.435 635.505 406.359 635.524 406.284C635.631 405.867 635.736 405.449 635.839 405.031C635.886 404.838 635.934 404.645 635.98 404.452C636.062 404.114 636.142 403.775 636.221 403.436C636.285 403.167 636.347 402.897 636.409 402.627C636.496 402.245 636.582 401.863 636.666 401.48C636.705 401.303 636.743 401.125 636.781 400.947C636.866 400.553 636.949 400.157 637.031 399.762C637.056 399.643 637.081 399.524 637.105 399.405C637.211 398.886 637.315 398.365 637.415 397.844C637.438 397.724 637.459 397.603 637.482 397.483C637.563 397.057 637.642 396.63 637.72 396.202C637.742 396.076 637.765 395.951 637.787 395.825C637.974 394.769 638.15 393.708 638.314 392.644C638.34 392.477 638.365 392.31 638.39 392.142C638.448 391.761 638.504 391.38 638.558 390.998C638.585 390.809 638.612 390.62 638.638 390.431C638.705 389.949 638.77 389.466 638.832 388.982C638.856 388.791 638.879 388.6 638.903 388.409C638.946 388.061 638.988 387.713 639.028 387.364C639.05 387.173 639.072 386.983 639.094 386.792C639.141 386.371 639.187 385.95 639.23 385.528C639.245 385.39 639.26 385.252 639.274 385.114C639.325 384.613 639.372 384.111 639.417 383.608C639.432 383.441 639.445 383.274 639.46 383.106C639.494 382.709 639.527 382.311 639.558 381.913C639.572 381.739 639.585 381.564 639.598 381.389C639.678 380.32 639.746 379.248 639.802 378.173C639.81 378.009 639.819 377.845 639.827 377.68C639.846 377.289 639.863 376.897 639.879 376.505C639.886 376.33 639.894 376.156 639.9 375.981C639.919 375.467 639.934 374.952 639.948 374.436C639.952 374.283 639.955 374.13 639.959 373.976C639.968 373.558 639.976 373.139 639.982 372.72C639.984 372.568 639.987 372.415 639.989 372.262C639.995 371.706 640 371.149 640 370.592C640 368.98 639.971 367.374 639.918 365.775C639.768 361.232 639.41 356.742 638.847 352.315C638.771 351.717 638.692 351.119 638.608 350.522C638.024 346.349 637.261 342.233 636.326 338.183C636.192 337.605 636.055 337.028 635.915 336.452C634.51 330.693 632.756 325.07 630.68 319.607C630.472 319.061 630.261 318.516 630.047 317.973C626.835 309.827 622.899 302.045 618.318 294.708C617.402 293.24 616.46 291.79 615.493 290.359C611.303 284.156 606.64 278.298 601.556 272.838C601.166 272.418 600.772 272 600.376 271.585C597.604 268.677 594.71 265.886 591.705 263.22C591.276 262.839 590.844 262.46 590.41 262.084C586.939 259.077 583.322 256.233 579.571 253.566C579.102 253.233 578.631 252.902 578.158 252.574C573.901 249.623 569.476 246.896 564.901 244.411C563.885 243.859 562.86 243.318 561.829 242.79C559.251 241.469 556.627 240.224 553.962 239.058C552.895 238.592 551.822 238.138 550.742 237.697C549.663 237.256 548.577 236.827 547.484 236.412C546.392 235.997 545.292 235.594 544.187 235.205C538.661 233.259 532.98 231.641 527.168 230.376C526.587 230.249 526.004 230.126 525.421 230.007C522.502 229.409 519.55 228.9 516.569 228.483C514.781 228.233 512.982 228.016 511.173 227.832C506.952 227.403 502.676 227.158 498.355 227.103L496.5 227.092C492.785 227.092 489.103 227.232 485.46 227.51C478.779 228.018 472.226 228.984 465.833 230.376C464.554 230.654 463.281 230.951 462.014 231.263C459.253 231.945 456.523 232.704 453.828 233.543C453.266 233.717 452.706 233.896 452.147 234.077C449.354 234.984 446.598 235.974 443.883 237.045C443.339 237.259 442.798 237.476 442.258 237.697C440.639 238.359 439.034 239.049 437.445 239.767C436.745 240.084 436.048 240.408 435.353 240.735C434.472 241.151 433.595 241.574 432.724 242.007C431.686 242.523 430.654 243.051 429.63 243.592C427.07 244.942 424.556 246.368 422.091 247.866C419.918 249.186 417.784 250.564 415.688 251.995C412.622 254.088 409.642 256.297 406.753 258.615C405.408 259.694 404.083 260.796 402.779 261.922C402.282 262.351 401.787 262.783 401.296 263.22C400.866 263.6 400.439 263.984 400.014 264.37C397.466 266.686 395.001 269.093 392.625 271.585C392.229 272 391.835 272.418 391.444 272.838C390.966 273.351 390.494 273.869 390.024 274.389C389.34 275.147 388.661 275.91 387.993 276.681C386.865 277.983 385.76 279.305 384.68 280.647C384.339 281.07 384.002 281.496 383.666 281.923C383.007 282.76 382.357 283.606 381.717 284.459C380.957 285.47 380.209 286.49 379.475 287.521C377.35 290.51 375.337 293.585 373.441 296.738C372.002 299.131 370.631 301.569 369.33 304.05C368.981 304.715 368.638 305.383 368.3 306.054C367.739 307.165 367.193 308.284 366.661 309.411C366.344 310.082 366.031 310.756 365.724 311.433C364.818 313.434 363.957 315.46 363.14 317.509C363.044 317.749 362.949 317.991 362.854 318.232C361.609 321.408 360.472 324.638 359.451 327.92C359.102 329.043 358.766 330.173 358.444 331.307C358.001 332.868 357.584 334.439 357.193 336.02C357.131 336.273 357.07 336.526 357.009 336.779C354.39 347.622 353 358.944 353 370.592C353 371.15 353.003 371.709 353.01 372.266C353.011 372.415 353.014 372.565 353.016 372.714C353.023 373.143 353.031 373.572 353.041 374.001C353.044 374.139 353.046 374.278 353.05 374.416C353.079 375.553 353.123 376.686 353.18 377.816C353.184 377.914 353.189 378.012 353.194 378.109C353.253 379.248 353.325 380.384 353.41 381.515C353.417 381.614 353.426 381.712 353.433 381.81C353.567 383.539 353.731 385.259 353.926 386.97C353.933 387.036 353.94 387.102 353.948 387.169C354.007 387.684 354.069 388.198 354.134 388.712C354.142 388.782 354.151 388.852 354.16 388.922C354.225 389.432 354.294 389.942 354.364 390.451C354.382 390.584 354.401 390.717 354.42 390.85C354.487 391.328 354.558 391.805 354.63 392.281C354.644 392.373 354.658 392.465 354.672 392.556C354.752 393.078 354.834 393.599 354.92 394.118C354.938 394.226 354.955 394.334 354.973 394.442C355.051 394.906 355.132 395.369 355.214 395.831C355.233 395.941 355.253 396.052 355.273 396.163C355.572 397.826 355.9 399.48 356.256 401.123C356.274 401.207 356.292 401.292 356.31 401.376C356.546 402.455 356.794 403.53 357.055 404.6C357.079 404.7 357.103 404.799 357.128 404.898C357.383 405.937 357.648 406.971 357.926 408.001C357.966 408.152 358.008 408.302 358.049 408.453C358.16 408.861 358.273 409.268 358.388 409.675C358.418 409.784 358.449 409.893 358.48 410.002C358.621 410.494 358.764 410.986 358.909 411.476C358.921 411.517 358.932 411.557 358.944 411.597C359.101 412.124 359.262 412.65 359.425 413.175C359.447 413.246 359.47 413.318 359.492 413.389C359.638 413.857 359.786 414.323 359.936 414.788C359.963 414.87 359.99 414.953 360.016 415.036C360.181 415.542 360.348 416.048 360.518 416.553C360.553 416.655 360.589 416.758 360.624 416.861C360.748 417.227 360.875 417.592 361.003 417.957C361.066 418.137 361.128 418.318 361.192 418.498C361.33 418.888 361.471 419.277 361.612 419.666C361.652 419.775 361.691 419.885 361.731 419.995C361.905 420.469 362.082 420.943 362.261 421.415C362.314 421.555 362.368 421.696 362.422 421.836C362.569 422.22 362.718 422.604 362.868 422.987C362.915 423.106 362.961 423.225 363.008 423.344C363.162 423.733 363.318 424.121 363.475 424.509C363.55 424.693 363.625 424.878 363.701 425.062C363.862 425.453 364.023 425.844 364.187 426.233C364.25 426.383 364.313 426.532 364.377 426.681C364.531 427.044 364.687 427.406 364.845 427.767C364.896 427.885 364.946 428.004 364.998 428.122C365.181 428.54 365.366 428.958 365.554 429.375L365.677 429.647C365.71 429.722 365.745 429.796 365.779 429.871C365.938 430.22 366.098 430.569 366.26 430.917C366.346 431.102 366.432 431.288 366.519 431.473C366.944 432.379 367.378 433.28 367.821 434.176C367.903 434.342 367.987 434.508 368.07 434.674C368.208 434.949 368.347 435.224 368.486 435.498C368.579 435.681 368.671 435.864 368.764 436.047C368.985 436.476 369.208 436.904 369.432 437.331C369.504 437.468 369.578 437.604 369.65 437.741C369.834 438.088 370.019 438.434 370.206 438.779C370.279 438.914 370.352 439.049 370.426 439.183C370.615 439.531 370.806 439.878 370.998 440.223C371.058 440.332 371.119 440.442 371.18 440.551C371.423 440.986 371.67 441.42 371.918 441.852C371.995 441.988 372.074 442.123 372.152 442.259C372.365 442.628 372.58 442.997 372.797 443.364C372.838 443.434 372.879 443.506 372.921 443.576C373.186 444.024 373.454 444.471 373.723 444.916C373.799 445.04 373.875 445.163 373.951 445.287C374.146 445.606 374.342 445.925 374.539 446.242C374.63 446.388 374.721 446.535 374.812 446.68C374.983 446.953 375.156 447.225 375.329 447.497C375.426 447.649 375.522 447.802 375.619 447.954C375.9 448.392 376.184 448.829 376.47 449.263C376.543 449.376 376.618 449.488 376.692 449.6C376.905 449.922 377.118 450.243 377.333 450.562C377.426 450.702 377.52 450.841 377.614 450.98C378.176 451.81 378.748 452.634 379.327 453.451C379.44 453.611 379.555 453.771 379.669 453.93C379.864 454.204 380.061 454.476 380.258 454.748C380.348 454.873 380.439 454.999 380.53 455.124C380.813 455.511 381.098 455.898 381.385 456.282C381.499 456.436 381.615 456.59 381.73 456.743C381.931 457.01 382.132 457.276 382.335 457.542C382.467 457.715 382.599 457.888 382.732 458.06C383.316 458.819 383.908 459.571 384.507 460.317C384.632 460.473 384.758 460.629 384.884 460.785C385.069 461.014 385.255 461.243 385.442 461.47C385.593 461.654 385.742 461.839 385.893 462.021C386.183 462.372 386.475 462.721 386.768 463.069C386.912 463.239 387.057 463.408 387.201 463.577C387.366 463.771 387.532 463.965 387.698 464.158C387.865 464.352 388.032 464.545 388.2 464.738C388.412 464.982 388.627 465.225 388.841 465.468C389.017 465.667 389.193 465.867 389.37 466.065C389.611 466.336 389.854 466.606 390.097 466.875C390.259 467.054 390.422 467.232 390.585 467.41C390.75 467.591 390.916 467.772 391.083 467.952C391.26 468.144 391.438 468.335 391.616 468.526C391.911 468.842 392.208 469.158 392.506 469.471C392.658 469.632 392.812 469.791 392.966 469.951C393.157 470.15 393.348 470.35 393.541 470.548C393.72 470.732 393.901 470.917 394.081 471.1C394.246 471.268 394.412 471.436 394.578 471.603C394.869 471.897 395.161 472.19 395.455 472.481C395.665 472.69 395.875 472.898 396.087 473.105C396.25 473.266 396.415 473.425 396.58 473.585C396.771 473.77 396.963 473.955 397.155 474.139C397.327 474.305 397.5 474.47 397.673 474.635C397.895 474.846 398.119 475.057 398.344 475.267C398.616 475.523 398.891 475.778 399.166 476.032C399.368 476.219 399.57 476.405 399.773 476.591C399.924 476.728 400.076 476.866 400.227 477.004C400.469 477.222 400.711 477.44 400.954 477.657C401.109 477.796 401.265 477.935 401.421 478.073C401.749 478.364 402.08 478.652 402.411 478.94C402.593 479.098 402.775 479.256 402.958 479.413C403.162 479.589 403.368 479.764 403.573 479.939C403.751 480.09 403.929 480.242 404.107 480.392C404.309 480.562 404.512 480.731 404.715 480.9C405.09 481.213 405.468 481.525 405.846 481.834C405.973 481.937 406.1 482.041 406.226 482.143C406.482 482.35 406.739 482.556 406.996 482.762C407.106 482.85 407.217 482.937 407.328 483.025C407.577 483.223 407.826 483.422 408.077 483.618C408.417 483.885 408.759 484.15 409.102 484.414C409.286 484.555 409.471 484.695 409.655 484.835C409.882 485.008 410.11 485.181 410.338 485.352C410.52 485.489 410.702 485.626 410.885 485.762C411.112 485.931 411.341 486.1 411.569 486.268C411.912 486.521 412.257 486.771 412.602 487.02C412.781 487.149 412.96 487.279 413.139 487.407C413.383 487.581 413.628 487.754 413.873 487.927C414.032 488.039 414.192 488.152 414.352 488.263C414.576 488.42 414.799 488.576 415.023 488.731C415.228 488.873 415.435 489.013 415.64 489.154C416.005 489.403 416.371 489.651 416.738 489.897C416.831 489.96 416.924 490.022 417.017 490.084C432.939 501.172 428.661 512.495 424.073 523.907L422.805 526.815C420.154 532.889 413.061 535.697 407.161 532.678C371.08 514.214 341.551 484.906 322.827 448.735C302.26 409.003 295.98 363.407 305.042 319.595C314.104 275.782 337.957 236.417 372.598 208.104C407.24 179.792 450.565 164.252 495.305 164.093Z" fill="white"/>
<path d="M387 561.591L412 533.091C385.525 519.809 372.334 509.713 351.5 489.091L336 522.591C334.5 525.591 333 529.091 336 531.091L378.5 561.591C380.5 563.091 385 563.591 387 561.591Z" fill="white"/>
<path d="M289.437 462.74L326.414 454.378C312.802 428.071 308.064 412.149 303.331 383.22L271.1 401.211C268.123 402.757 264.853 404.707 266.104 408.088L282.56 457.744C283.296 460.133 286.643 463.182 289.437 462.74Z" fill="white"/>
<path d="M267.55 320.646L302.38 335.615C306.831 306.332 312.356 290.666 325.531 264.48L288.881 260.09C285.564 259.591 281.772 259.246 280.797 262.717L264.923 312.562C264.114 314.928 265.03 319.362 267.55 320.646Z" fill="white"/>
<path d="M334.386 193.38L353.195 226.296C374.372 205.588 388.213 196.402 414.494 183.417L387.866 157.855C385.517 155.46 382.697 152.903 379.829 155.088L337.154 185.343C335.084 186.746 333.147 190.838 334.386 193.38Z" fill="white"/>
<path d="M464.052 129.696L460.249 167.415C489.515 162.855 506.117 163.413 535.054 168.104L528.219 131.83C527.698 128.517 526.887 124.796 523.283 124.91L470.972 124.76C468.472 124.7 464.518 126.906 464.052 129.696Z" fill="white"/>
<path d="M602.019 154.33L577.52 183.262C604.223 196.08 617.589 205.944 638.779 226.2L653.692 192.434C655.14 189.409 656.578 185.883 653.544 183.936L610.518 154.182C608.492 152.717 603.984 152.296 602.019 154.33Z" fill="white"/>
<path d="M702.063 255.511L665.237 264.518C679.306 290.583 684.321 306.419 689.559 335.262L721.47 316.71C724.42 315.113 727.656 313.107 726.346 309.748L709.026 260.386C708.248 258.011 704.849 255.02 702.063 255.511Z" fill="white"/>
<path d="M724.677 396.275L689.846 381.306C685.396 410.589 679.87 426.255 666.696 452.441L703.346 456.831C706.662 457.33 710.455 457.675 711.43 454.204L727.304 404.359C728.112 401.994 727.197 397.559 724.677 396.275Z" fill="white"/>
<path d="M661.226 516.106L640.721 484.219C620.657 506.007 607.316 515.905 581.75 530.247L609.68 554.381C612.15 556.65 615.101 559.056 617.85 556.724L658.883 524.277C660.877 522.768 662.598 518.58 661.226 516.106Z" fill="white"/>
</svg>
